<svg id="Capa_1" enable-background="new 0 0 510 510" height="512" viewBox="0 0 510 510" width="512" xmlns="http://www.w3.org/2000/svg" xmlns:xlink="http://www.w3.org/1999/xlink"><linearGradient id="lg1"><stop offset="0" stop-color="#99e6fc"/><stop offset=".5042" stop-color="#01d0fb"/><stop offset=".5857" stop-color="#08c7f7"/><stop offset=".7226" stop-color="#1bacec"/><stop offset=".8971" stop-color="#3a82dc"/><stop offset="1" stop-color="#4f66d0"/></linearGradient><linearGradient id="SVGID_1_" gradientUnits="userSpaceOnUse" x1="74.985" x2="521.824" xlink:href="#lg1" y1="280.338" y2="280.338"/><linearGradient id="lg2"><stop offset="0" stop-color="#ffc2b5"/><stop offset="1" stop-color="#ff89a8"/></linearGradient><linearGradient id="SVGID_2_" gradientUnits="userSpaceOnUse" x1="168.002" x2="307.442" xlink:href="#lg2" y1="316.667" y2="316.667"/><linearGradient id="SVGID_3_" gradientUnits="userSpaceOnUse" x1="8.002" x2="347.181" xlink:href="#lg1" y1="321.281" y2="321.281"/><linearGradient id="SVGID_4_" gradientUnits="userSpaceOnUse" x1="-64.998" x2="308.967" xlink:href="#lg1" y1="401.897" y2="401.897"/><linearGradient id="SVGID_5_" gradientUnits="userSpaceOnUse" x1="49.002" x2="438.023" xlink:href="#lg1" y1="321.281" y2="321.281"/><linearGradient id="SVGID_6_" gradientUnits="userSpaceOnUse" x1="71.628" x2="412.114" xlink:href="#lg1" y1="321.281" y2="321.281"/><linearGradient id="lg3"><stop offset="0" stop-color="#ffdcbd"/><stop offset=".0028" stop-color="#ffdcbd"/><stop offset="1" stop-color="#ffa9b1"/></linearGradient><linearGradient id="SVGID_7_" gradientUnits="userSpaceOnUse" x1="93.922" x2="183.14" xlink:href="#lg3" y1="145.555" y2="145.555"/><linearGradient id="SVGID_8_" gradientUnits="userSpaceOnUse" x1="344.196" x2="433.414" xlink:href="#lg3" y1="145.555" y2="145.555"/><linearGradient id="SVGID_9_" gradientUnits="userSpaceOnUse" x1="135" x2="379.051" xlink:href="#lg3" y1="150.917" y2="150.917"/><linearGradient id="SVGID_10_" gradientUnits="userSpaceOnUse" x1="236.667" x2="394.807" xlink:href="#lg2" y1="150.92" y2="150.92"/><linearGradient id="lg4"><stop offset="0" stop-color="#537983"/><stop offset="1" stop-color="#3e5959"/></linearGradient><linearGradient id="SVGID_11_" gradientUnits="userSpaceOnUse" x1="165.953" x2="226.738" xlink:href="#lg4" y1="157.879" y2="157.879"/><linearGradient id="SVGID_12_" gradientUnits="userSpaceOnUse" x1="238.667" x2="334.75" xlink:href="#lg4" y1="157.879" y2="157.879"/><linearGradient id="SVGID_13_" gradientUnits="userSpaceOnUse" x1="151.002" x2="345.314" y1="244.968" y2="244.968"><stop offset="0" stop-color="#fecec8"/><stop offset=".5725" stop-color="#fe73c5"/><stop offset="1" stop-color="#f1239a"/></linearGradient><linearGradient id="SVGID_14_" gradientUnits="userSpaceOnUse" x1="229.525" x2="291.825" y1="249.648" y2="249.648"><stop offset="0" stop-color="#fff3be"/><stop offset=".5725" stop-color="#ffd15b"/><stop offset="1" stop-color="#eca026"/></linearGradient><linearGradient id="SVGID_15_" gradientUnits="userSpaceOnUse" x1="199" x2="280.499" xlink:href="#lg4" y1="39.528" y2="39.528"/><linearGradient id="SVGID_16_" gradientUnits="userSpaceOnUse" x1="113.626" x2="464.15" xlink:href="#lg1" y1="460.789" y2="460.789"/><linearGradient id="SVGID_17_" gradientUnits="userSpaceOnUse" x1="121.502" x2="434.002" xlink:href="#lg1" y1="473.043" y2="473.043"/><g><path d="m262.041 510h-14.077c-89.237 0-161.577-72.341-161.577-161.577v-136.17c0-89.237 72.341-161.577 161.577-161.577h14.077c89.237 0 161.577 72.341 161.577 161.577v136.17c0 89.236-72.341 161.577-161.577 161.577z" fill="url(#SVGID_1_)"/><ellipse cx="255.002" cy="316.667" fill="url(#SVGID_2_)" rx="106.009" ry="57.561"/><path d="m391.242 445.46c-29.47 39.19-76.38 64.54-129.2 64.54h-14.08c-89.24 0-161.58-72.34-161.58-161.58v-136.17c0-28.98 7.643-56.172 21.005-79.689-18.661 32.904-12.658 74.306 14.095 101.059l17.45 17.44c35.84 35.84 81.71 59.95 131.55 69.14l76.15 14.03c51.36 9.47 75.31 69.43 44.61 111.23z" fill="url(#SVGID_3_)"/><path d="m394.271 366.894c-9.947-16.263-26.459-28.759-47.639-32.664l-76.15-14.03c-7.447-1.373-14.805-3.081-22.055-5.111-23.758-6.654-48.739-7.686-73.002-3.208-19.24 3.551-37.844 6.983-37.844 6.983-17.794 3.281-32.294 12.625-42.374 25.173-6.112 7.609-8.586 17.514-7.222 27.177 6.245 44.23 30.399 82.698 64.89 107.846 21 9.985 44.496 15.574 69.295 15.574h14.08c77.633.001 142.466-54.748 158.021-127.74z" fill="url(#SVGID_4_)"/><path d="m118.758 445.46c29.47 39.19 76.38 64.54 129.2 64.54h14.08c89.24 0 161.58-72.34 161.58-161.58v-136.17c0-28.98-7.643-56.172-21.005-79.689 18.661 32.904 12.658 74.306-14.095 101.059l-17.45 17.44c-35.84 35.84-81.71 59.95-131.55 69.14l-76.15 14.03c-51.36 9.47-75.31 69.43-44.61 111.23z" fill="url(#SVGID_5_)"/><path d="m402.613 132.561c18.661 32.904 12.658 74.306-14.095 101.059l-5.362 5.359v109.441c0 84.782-65.295 154.302-148.341 161.037 4.336.349 8.717.543 13.143.543h14.08c89.24 0 161.58-72.34 161.58-161.58v-136.17c0-28.98-7.643-56.172-21.005-79.689z" fill="url(#SVGID_6_)"/><g><g><circle cx="129.865" cy="145.555" fill="url(#SVGID_7_)" r="33.667"/><circle cx="380.139" cy="145.555" fill="url(#SVGID_8_)" r="33.667"/></g><path d="m260.572 289.217h-11.141c-66.295 0-120.037-53.743-120.037-120.037v-36.526c0-66.295 53.743-120.037 120.037-120.037h11.141c66.295 0 120.037 53.743 120.037 120.037v36.526c.001 66.295-53.742 120.037-120.037 120.037z" fill="url(#SVGID_9_)"/><path d="m260.57 12.62h-11.14c-2.46 0-4.9.07-7.32.23 62.88 3.77 112.71 55.97 112.71 119.8v36.53c0 63.83-49.83 116.04-112.71 119.81 2.42.16 4.86.23 7.32.23h11.14c66.3 0 120.04-53.75 120.04-120.04v-36.53c0-66.29-53.74-120.03-120.04-120.03z" fill="url(#SVGID_10_)"/><g><path d="m198.019 176.033c-15.635 0-28.354-12.719-28.354-28.353 0-4.393 3.561-7.955 7.955-7.955s7.955 3.561 7.955 7.955c0 6.862 5.583 12.444 12.445 12.444s12.444-5.583 12.444-12.444c0-4.393 3.561-7.955 7.955-7.955s7.955 3.561 7.955 7.955c-.002 15.634-12.721 28.353-28.355 28.353z" fill="url(#SVGID_11_)"/><path d="m311.986 176.033c-15.635 0-28.354-12.719-28.354-28.353 0-4.393 3.561-7.955 7.955-7.955 4.393 0 7.954 3.561 7.954 7.955 0 6.862 5.583 12.444 12.445 12.444s12.444-5.583 12.444-12.444c0-4.393 3.561-7.955 7.955-7.955 4.393 0 7.954 3.561 7.954 7.955.001 15.634-12.719 28.353-28.353 28.353z" fill="url(#SVGID_12_)"/></g><g><path d="m319.591 230.94c-1.948-21.986-24.008-33.788-41.083-22.51-6.883 4.546-14.92 7.156-23.506 7.156s-16.623-2.61-23.506-7.157c-17.075-11.278-39.135.523-41.083 22.51-.107 1.202-.161 2.416-.161 3.639 0 28.315 28.989 51.269 64.75 51.269s64.75-22.954 64.75-51.269c0-1.222-.054-2.436-.161-3.638z" fill="url(#SVGID_13_)"/><circle cx="255.002" cy="249.648" fill="url(#SVGID_14_)" r="25.392"/></g></g><path d="m287.455 49.675c-23.528 0-42.601-19.073-42.601-42.601 0-.04 0-.08 0-.121.016-5.531-6.092-8.868-10.669-5.763-11.521 7.815-19.012 21.121-18.702 36.164.468 22.684 19.008 41.224 41.692 41.692 15.042.31 28.348-7.181 36.163-18.702 3.105-4.577-.232-10.685-5.763-10.669-.039 0-.08 0-.12 0z" fill="url(#SVGID_15_)"/><path d="m255.002 411.577c-51.843 0-98.212 16.576-129.143 42.647 29.617 34.158 73.333 55.776 122.099 55.776h14.08c48.77 0 92.491-21.606 122.117-55.768-30.931-26.076-77.305-42.655-129.153-42.655z" fill="url(#SVGID_16_)"/><path d="m384.155 454.232c-7.974-6.723-16.982-12.808-26.839-18.147-26.529 40.989-71.113 69.204-122.501 73.372.031.002.06.012.09.016 4.306.344 8.658.526 13.052.526h14.08c48.771.001 92.492-21.605 122.118-55.767z" fill="url(#SVGID_17_)"/></g></svg>